<?xml version="1.0" encoding="utf-8"?>
<svg viewBox="123.570642 30.459474 245 436.36898" width="245" height="436.368988" xmlns="http://www.w3.org/2000/svg">
<path style="fill: none; stroke-linejoin: round; stroke-linecap: round; stroke-width: 10px; stroke: rgb(255, 255, 255);" d="M 152.390142 15 L 30 199.640561 L 152.170356 385.000041 L 275.000007 200.190652 L 152.390142 15 Z" transform="matrix(1, 0, 0, 1, 93.570641958276, 15.459473840288)"/>
<path style="fill: none; stroke-linejoin: round; stroke-linecap: round; stroke-width: 10px; stroke: rgb(255, 255, 255);" d="M 152.390142 47.95322 L 30 232.593781 L 152.170356 417.953261 L 275.000007 233.143872 L 152.390142 47.95322 Z" transform="matrix(1, 0, 0, 1, 93.570641958276, 15.459473840288)"/>
<path style="fill: none; stroke-linejoin: round; stroke-linecap: round; stroke-width: 10px; stroke: rgb(255, 255, 255);" d="M 152.390142 81.36895 L 30 266.009511 L 152.170356 451.368991 L 275.000007 266.559602 L 152.390142 81.36895 Z" transform="matrix(1, 0, 0, 1, 93.570641958276, 15.459473840288)"/>
<path d="M 100.212571 277.282652 C 99.36706 277.282652 98.730793 276.987177 98.303767 276.396224 C 97.885282 275.813481 97.676039 275.115829 97.676039 274.303271 C 97.769986 272.949007 98.051823 272.136449 98.52155 271.865596 C 98.991278 271.594744 99.883763 271.459317 101.199 271.459317 C 103.923423 271.459317 105.943254 270.987376 107.258492 270.043496 C 108.573731 269.091407 109.39362 267.913608 109.718158 266.510098 C 110.051239 265.114795 110.264752 263.288591 110.358697 261.031485 L 110.358697 207.267205 C 110.264752 205.010097 110.051239 203.183894 109.718158 201.788591 C 109.39362 200.385081 108.573731 199.211385 107.258492 198.267505 C 105.943254 197.315415 103.923423 196.839372 101.199 196.839372 L 100.353489 196.839372 C 99.414034 196.839372 98.756415 196.683426 98.380632 196.371536 C 98.004849 196.051437 97.769986 195.259397 97.676039 193.995418 C 97.676039 193.182859 97.885282 192.481105 98.303767 191.890152 C 98.730793 191.307408 99.36706 191.016037 100.212571 191.016037 C 106.319036 191.28689 115.130785 191.106754 120.109901 191.106754 C 125.746637 191.106754 133.352832 191.28689 139.459296 191.016037 C 140.304807 191.016037 140.936806 191.307408 141.355289 191.890152 C 141.782315 192.481105 141.995828 193.182859 141.995828 193.995418 C 141.901882 195.349682 141.620046 196.16224 141.150317 196.433093 C 140.68059 196.703946 139.788106 196.839372 138.472867 196.839372 C 135.748445 196.839372 133.728614 197.315415 132.413375 198.267505 C 131.098138 199.211385 130.278248 200.385081 129.953709 201.788591 C 129.620628 203.183894 129.407117 205.010097 129.31317 207.267205 L 129.31317 231.237677 L 170.225861 231.69255 L 170.225861 207.722078 C 170.131916 205.46497 169.918403 203.638767 169.585323 202.243464 C 169.260784 200.839954 168.440895 199.666258 167.125655 198.722378 C 165.810418 197.770288 163.790587 197.294245 161.066164 197.294245 L 160.220654 197.294245 C 159.281197 197.294245 158.602228 197.138299 158.183742 196.826409 C 157.756717 196.50631 157.496232 195.71427 157.402285 194.450291 C 157.402285 193.637732 157.63715 192.935978 158.106877 192.345025 C 158.576606 191.762281 159.187253 191.47091 159.938816 191.47091 C 166.045282 191.741763 174.240326 191.819471 179.877063 191.819471 C 185.044072 191.819471 193.768802 191.438522 199.781322 191.167669 C 200.626832 191.167669 201.263101 191.45904 201.690126 192.041784 C 202.108611 192.632737 202.317853 193.334491 202.317853 194.14705 C 202.223908 195.501314 201.92072 196.313872 201.408288 196.584725 C 200.887319 196.855578 200.016186 196.991004 198.794893 196.991004 C 196.070471 196.991004 194.025018 197.467047 192.658536 198.419137 C 191.300594 199.363017 190.455085 200.536713 190.122004 201.940223 C 189.797466 203.335526 189.588224 205.161729 189.494277 207.418837 L 189.494277 261.183117 C 189.588224 263.440223 189.797466 265.266427 190.122004 266.66173 C 190.455085 268.06524 191.300594 269.243039 192.658536 270.195128 C 194.025018 271.139008 196.070471 271.610949 198.794893 271.610949 L 199.640403 271.610949 C 200.485914 271.610949 201.122182 271.770999 201.549207 272.091097 C 201.967693 272.402988 202.223908 273.190924 202.317853 274.454903 C 202.317853 275.267461 202.108611 275.965113 201.690126 276.547856 C 201.263101 277.138809 200.626832 277.434284 199.781322 277.434284 C 193.768802 277.163432 185.402855 277.631031 180.1419 277.631031 C 174.599111 277.631031 166.045282 277.466673 159.938816 277.737525 C 159.187253 277.737525 158.576606 277.44205 158.106877 276.851097 C 157.63715 276.268354 157.402285 275.570702 157.402285 274.758144 C 157.496232 273.40388 157.80369 272.591322 158.324661 272.320469 C 158.837091 272.049617 159.750926 271.91419 161.066164 271.91419 C 163.790587 271.91419 165.810418 271.442249 167.125655 270.498369 C 168.440895 269.54628 169.260784 268.368481 169.585323 266.964971 C 169.918403 265.569668 170.131916 263.743464 170.225861 261.486358 L 170.225861 237.515885 L 129.31317 237.061012 L 129.31317 261.031485 C 129.407117 263.288591 129.620628 265.114795 129.953709 266.510098 C 130.278248 267.913608 131.098138 269.091407 132.413375 270.043496 C 133.728614 270.987376 135.748445 271.459317 138.472867 271.459317 L 139.318378 271.459317 C 140.257835 271.459317 140.915454 271.619367 141.291236 271.939465 C 141.667019 272.251356 141.901882 273.039292 141.995828 274.303271 C 141.995828 275.115829 141.782315 275.813481 141.355289 276.396224 C 140.936806 276.987177 140.304807 277.282652 139.459296 277.282652 C 133.446778 277.0118 126.105935 277.631031 120.469198 277.631031 C 115.396135 277.631031 106.319036 277.0118 100.212571 277.282652 Z" style="white-space: pre; stroke: rgb(255, 255, 255); fill: rgb(255, 254, 250);" transform="matrix(1, 0, 0, 1, 93.570641958276, 15.459473840288)"/>
</svg>